<!-- Simplified starter SVG for mainsail (scale in feet). Open in Inkscape or Illustrator and edit.
     This is a schematic with panel marks and numeric dimensions as assumptions. Use as starting point. -->
<svg xmlns="http://www.w3.org/2000/svg" width="1200" height="1600" viewBox="0 0 120 160">
  <style>
    .panel { fill:none; stroke:#000; stroke-width:0.2 }
    .guide { fill:none; stroke:#f00; stroke-width:0.05; stroke-dasharray:0.5 0.5 }
    .text { font-size:1.8px; font-family:Arial }
  </style>

  <!-- Outer sail outline (simplified) -->
  <!-- Coordinates are unit = 1 foot for reference; adjust view to your desired scale -->
  <!-- This is a trapezoid-like sail with gaff head -->
  <g transform="translate(10,150) scale(1,-1)">
    <!-- Foot line (boom) -->
    <polyline class="panel" points="0,0 12,0 12,2 0,2 0,0" />
    <!-- Leech rising to head (approx) -->
    <path class="panel" d="M12,0 L13.5,10 L9.5,12.5 L0,2 Z" />
    <!-- Gaff (head) -->
    <line class="panel" x1="9.5" y1="12.5" x2="17.5" y2="18" />
    <!-- Mast luff (left vertical) -->
    <line class="panel" x1="0" y1="0" x2="0" y2="20" />
    <!-- Panel horizontal guides (approx heights) -->
    <line class="guide" x1="0" y1="3.25" x2="14" y2="3.25" />
    <line class="guide" x1="0" y1="6.0" x2="14" y2="6.0" />
    <line class="guide" x1="0" y1="8.75" x2="14" y2="8.75" />
    <line class="guide" x1="0" y1="11.25" x2="14" y2="11.25" />
    <line class="guide" x1="0" y1="14.0" x2="14" y2="14.0" />
    <!-- Text dims -->
    <text class="text" x="0.5" y="1.5">Boom E = 12.0 ft</text>
    <text class="text" x="0.5" y="22.5">P ≈ 17.5 ft (luff)</text>
    <text class="text" x="9.6" y="13.6">G ≈ 8.0 ft</text>
    <text class="text" x="6.0" y="4.0">Panel A (foot) ~3.25'</text>
    <text class="text" x="6.0" y="7.0">Panel B ~2.75'</text>
    <text class="text" x="6.0" y="9.5">Panel C ~2.75'</text>
    <text class="text" x="6.0" y="12.0">Panel D ~2.5'</text>
    <text class="text" x="6.0" y="15.0">Panel E ~2.5'</text>
    <text class="text" x="6.0" y="18.0">Panel F (head) ~1.75'</text>

    <!-- Corner reinforcement markers -->
    <circle cx="0" cy="0" r="0.4" fill="#000" />
    <text class="text" x="0.6" y="0.8">Tack</text>
    <circle cx="12" cy="0" r="0.4" fill="#000" />
    <text class="text" x="12.6" y="0.8">Clew</text>
    <circle cx="17.5" cy="18" r="0.4" fill="#000" />
    <text class="text" x="17.8" y="18.6">Peak</text>
  </g>
</svg>
